<svg width="48" height="48" viewBox="0 0 48 48" fill="none" xmlns="http://www.w3.org/2000/svg">
<path d="M27.7078 14.7995L28.6725 14.7655V13.8001C28.6725 13.4011 28.6785 12.9869 28.6845 12.5765C28.693 11.9875 28.7015 11.4064 28.6918 10.8894C28.675 9.98743 28.6052 9.08408 28.3496 8.28676C28.0844 7.4596 27.609 6.71716 26.7857 6.20639C25.9891 5.71217 24.9728 5.50136 23.7444 5.50412C23.7441 5.50412 23.7437 5.50412 23.7433 5.50412L23.743 5.50412L23.74 5.50413L23.7328 5.50419L23.7136 5.50448C23.6988 5.50477 23.68 5.5053 23.6572 5.50623C23.6118 5.50809 23.5508 5.51157 23.476 5.51804C23.3264 5.53096 23.1206 5.55589 22.8721 5.60406C22.3761 5.70023 21.7031 5.89042 20.9677 6.26769C19.6073 6.96564 18.0928 8.27499 17.0862 10.6681L10.6809 10.1024C11.2473 5.80677 15.789 1 24.52 1C33.7066 1 35.942 6.5973 35.942 8.68976V24.2215C35.942 26.0504 37.0434 27.6803 37.9726 28.7527C38.34 29.1767 38.7058 29.5422 39.0177 29.8322L34.2172 34.3499C33.6627 33.8474 32.958 33.201 32.2755 32.5504C31.768 32.0666 31.279 31.5865 30.8761 31.1651C30.4591 30.7291 30.1793 30.4021 30.0528 30.2126L29.2218 28.968L28.3899 30.2119C26.1468 33.5657 21.4902 35.2236 17.3374 34.636C15.2857 34.3457 13.4365 33.515 12.1084 32.1506C10.7939 30.8002 9.92337 28.8604 9.92337 26.2065C9.92337 23.7396 10.6821 21.8526 11.8729 20.3801C13.0773 18.8909 14.7633 17.7784 16.674 16.9541C20.5124 15.2982 25.0474 14.8934 27.7078 14.7995ZM28.6725 18.6782V17.6466L27.6413 17.6787C25.733 17.7382 23.2382 18.0236 21.1873 19.0017C20.1509 19.496 19.1875 20.1861 18.4823 21.1515C17.7685 22.1288 17.3588 23.335 17.3588 24.7811C17.3588 28.1506 20.2851 30.133 23.0451 30.0516C24.4596 30.01 25.8932 29.44 26.9656 28.2299C28.0372 27.0208 28.6725 25.2603 28.6725 22.965V18.6782ZM40.8609 40.5933C39.968 41.316 38.5505 42.3086 36.6331 43.267C33.476 44.8451 29.0156 46.3027 23.4138 46.3027C14.7045 46.3027 7.5526 41.8405 3.59209 38.4542C7.13458 40.4202 11.4558 42.5062 16.6858 43.5682C23.2613 44.9035 31.2146 44.6128 40.8609 40.5933ZM0.96406 35.8774C0.9641 35.8774 0.964642 35.8783 0.965569 35.8801C0.964483 35.8783 0.96402 35.8774 0.96406 35.8774ZM46.9143 37.5917C46.8348 38.0758 46.7051 38.6137 46.5407 39.135C46.5579 39.0378 46.5729 38.9419 46.5855 38.848C46.6269 38.5398 46.6476 38.2147 46.6173 37.9067C46.5886 37.6141 46.5035 37.2244 46.235 36.8943L46.2324 36.8911C45.9632 36.563 45.5949 36.368 45.2401 36.2469C45.3783 36.2546 45.5147 36.2644 45.6478 36.2764C46.1077 36.3176 46.4967 36.3817 46.7822 36.4622C46.8767 36.4888 46.9455 36.5133 46.9942 36.5328C46.9964 36.5622 46.9982 36.5963 46.9992 36.6354C47.0051 36.8716 46.9788 37.1987 46.9143 37.5917ZM46.9755 36.4001C46.9741 36.3962 46.9736 36.3942 46.9737 36.3943C46.9738 36.3943 46.9745 36.3962 46.9755 36.4001ZM44.8157 43.7007L44.7076 43.6484L44.8157 43.7007Z" fill="#268E8E" fill-opacity="0.94" stroke="#185C5C" stroke-width="2"/>
</svg>
