<svg width="48" height="46" viewBox="0 0 48 46" fill="none" xmlns="http://www.w3.org/2000/svg">
<path d="M35.5211 21.9091H29.1518V18.1483C29.1518 17.3014 29.3699 16.5843 29.8203 16.0871C30.2531 15.6094 31.0345 15.1873 32.4825 15.1873H35.8329H36.8329V14.1873V7.94864V7.09826L35.9935 6.96163L35.8329 7.94864C35.9935 6.96163 35.9935 6.96162 35.9934 6.9616L35.9931 6.96156L35.9924 6.96144L35.9901 6.96108L35.9823 6.95983L35.9538 6.95529C35.9292 6.95141 35.8934 6.94582 35.8472 6.93878C35.7548 6.9247 35.6208 6.90479 35.4514 6.88101C35.1127 6.83346 34.6318 6.77028 34.0585 6.70715C32.916 6.58133 31.389 6.45364 29.8843 6.45364C26.6593 6.45364 23.8787 7.38848 21.8985 9.28069C19.9114 11.1795 18.8482 13.9298 18.8482 17.3209V21.9091H13.0982H12.0982V22.9091V30.241V31.241H13.0982H18.8482V44.8182H5.14286C4.02948 44.8182 2.97053 44.3956 2.19678 43.657C1.42462 42.9199 1 41.9304 1 40.9091V4.90909C1 3.88774 1.42462 2.89826 2.19678 2.1612C2.97053 1.42262 4.02948 1 5.14286 1H42.8571C43.9705 1 45.0295 1.42262 45.8032 2.16119C46.5754 2.89826 47 3.88774 47 4.90909V40.9091C47 41.9304 46.5754 42.9199 45.8032 43.657C45.0295 44.3956 43.9705 44.8182 42.8571 44.8182H29.1518V31.241H34.3425H35.1946L35.3298 30.3997L36.5084 23.0678L36.6947 21.9091H35.5211Z" fill="#268E8E" fill-opacity="0.94" stroke="#185C5C" stroke-width="2"/>
</svg>
