<svg width="48" height="46" viewBox="0 0 48 46" fill="none" xmlns="http://www.w3.org/2000/svg">
<path d="M46.8326 13.5088L46.8325 13.5088L46.8331 13.5186C47.0556 17.2611 47.0556 28.5469 46.8331 32.2894L46.8327 32.2963C46.6471 35.8305 45.8141 38.7896 43.2645 41.2234L43.2631 41.2247C40.7054 43.6755 37.5818 44.4795 33.8547 44.648L33.8547 44.648L33.8457 44.6484C29.9197 44.8611 18.0803 44.8611 14.1543 44.6484L14.148 44.6481C10.4201 44.4697 7.30412 43.6659 4.73416 41.2221C2.17515 38.7887 1.34263 35.8309 1.16748 32.2992L1.16689 32.2894C0.944369 28.5469 0.944369 17.2508 1.16689 13.5084L1.16692 13.5084L1.16728 13.5015C1.35304 9.96502 2.17618 7.00807 4.73416 4.57564C7.3037 2.13223 10.4297 1.32839 14.1454 1.15996L14.1455 1.16L14.1543 1.15953C18.0803 0.946825 29.9197 0.946825 33.8457 1.15955L33.852 1.15985C37.5813 1.33833 40.7062 2.14262 43.2645 4.58455L43.2658 4.58587C45.8248 7.01927 46.6574 9.97706 46.8326 13.5088ZM38.5051 41.6963L38.5085 41.695C40.8621 40.7941 42.6904 39.059 43.6358 36.7915C44.3427 35.0959 44.5803 32.3744 44.6639 29.8106C44.725 27.9391 44.7048 26.0296 44.6886 24.4998C44.6822 23.9014 44.6765 23.3611 44.6765 22.904C44.6765 22.4467 44.6822 21.9065 44.6886 21.3083C44.7048 19.7795 44.725 17.8716 44.6639 16.0012C44.5802 13.438 44.3426 10.7176 43.6362 9.01759L43.6347 9.01397C42.6794 6.74008 40.8528 5.00351 38.5061 4.11207L38.5035 4.11107C36.751 3.45103 33.9244 3.22394 31.2369 3.14275C29.2647 3.08316 27.2558 3.10154 25.6479 3.11625C25.0337 3.12187 24.4781 3.12696 24.0054 3.12696C23.524 3.12696 22.9566 3.12148 22.3288 3.11541C20.7278 3.09994 18.7346 3.08069 16.7783 3.1389C14.0919 3.21884 11.2644 3.44582 9.50562 4.11167L9.50218 4.11298C7.1486 5.0139 5.32028 6.74899 4.37494 9.01648L4.37377 9.01929C3.67361 10.7132 3.43582 13.4328 3.3508 15.9968C3.28828 17.8824 3.30758 19.8052 3.323 21.3406C3.32888 21.9258 3.33419 22.4548 3.33419 22.904C3.33419 23.3612 3.32846 23.9014 3.32212 24.4997C3.30591 26.0285 3.28569 27.9363 3.34677 29.8068C3.43047 32.3699 3.66815 35.0904 4.37447 36.7904L4.37599 36.794C5.33128 39.0679 7.15788 40.8045 9.50456 41.6959L9.50722 41.6969C11.2598 42.3569 14.0864 42.584 16.7738 42.6652C18.746 42.7248 20.7549 42.7064 22.3629 42.6917C22.977 42.6861 23.5326 42.681 24.0054 42.681C24.4867 42.681 25.0542 42.6865 25.682 42.6926C27.2829 42.708 29.2761 42.7273 31.2324 42.6691C33.9188 42.5891 36.7463 42.3621 38.5051 41.6963ZM12.7015 22.904C12.7015 16.9987 17.7028 12.1594 24.0054 12.1594C30.3079 12.1594 35.3092 16.9987 35.3092 22.904C35.3092 28.8093 30.3079 33.6486 24.0054 33.6486C17.7028 33.6486 12.7015 28.8093 12.7015 22.904ZM15.0062 22.904C15.0062 27.7117 19.0972 31.5395 24.0054 31.5395C28.9135 31.5395 33.0045 27.7117 33.0045 22.904C33.0045 18.0971 28.9251 14.2685 24.0054 14.2685C19.0856 14.2685 15.0062 18.0971 15.0062 22.904ZM38.6823 10.679C38.6823 11.604 37.8919 12.4184 36.8125 12.4184C35.7274 12.4184 34.9427 11.5985 34.9427 10.679C34.9427 9.76181 35.7356 8.9396 36.8125 8.9396C37.8894 8.9396 38.6823 9.76181 38.6823 10.679Z" fill="#268E8E" fill-opacity="0.94" stroke="#185C5C" stroke-width="2"/>
</svg>
