<svg width="238" height="36" viewBox="0 0 238 36" fill="none" xmlns="http://www.w3.org/2000/svg">
<path d="M12.12 26.6H11.72V5H12.12V15.64H20.8L25.4 5H25.84L21.24 15.64H22.88C24.5067 15.64 25.72 15.9467 26.52 16.56C27.32 17.1733 27.72 18.1733 27.72 19.56V26.6H27.32V19.56C27.32 18.28 26.9467 17.3733 26.2 16.84C25.4533 16.3067 24.3467 16.04 22.88 16.04H12.12V26.6ZM15 30.2C15.5067 30.2 15.8667 30.0933 16.08 29.88C16.32 29.64 16.44 29.2667 16.44 28.76V19.6H21.72C22.1467 19.6 22.4667 19.72 22.68 19.96C22.8933 20.2 23 20.5333 23 20.96V28.76C23 29.2667 23.1067 29.64 23.32 29.88C23.56 30.0933 23.9333 30.2 24.44 30.2H30.6C31.1067 30.2 31.4667 30.0933 31.68 29.88C31.92 29.64 32.04 29.2667 32.04 28.76V17.48C32.04 15.88 31.5867 14.6 30.68 13.64C29.8 12.6533 28.6133 12.12 27.12 12.04L31.2 2.72C31.3867 2.29333 31.4 1.97333 31.24 1.76C31.08 1.52 30.7733 1.4 30.32 1.4H24.16C23.6533 1.4 23.24 1.50667 22.92 1.72C22.6 1.90667 22.3467 2.24 22.16 2.72L18.04 12.04H16.44V2.84C16.44 2.33333 16.32 1.97333 16.08 1.76C15.8667 1.52 15.5067 1.4 15 1.4H8.79999C8.29332 1.4 7.91999 1.52 7.67999 1.76C7.46665 1.97333 7.35999 2.33333 7.35999 2.84V28.76C7.35999 29.2667 7.46665 29.64 7.67999 29.88C7.91999 30.0933 8.29332 30.2 8.79999 30.2H15ZM16.28 30.24L11.08 34.56C10.9733 34.6667 10.8 34.76 10.56 34.84C10.3467 34.92 10.1067 34.96 9.83999 34.96H3.63999C2.99999 34.96 2.53332 34.8133 2.23999 34.52C1.94665 34.2267 1.79999 33.76 1.79999 33.12V7.2C1.79999 6.85333 1.83999 6.56 1.91999 6.32C2.02665 6.08 2.17332 5.88 2.35999 5.72L7.51999 1.36C7.65332 1.25333 7.82665 1.17333 8.03999 1.12C8.27999 1.04 8.53332 1 8.79999 1H15C15.64 1 16.1067 1.14667 16.4 1.44C16.6933 1.73333 16.84 2.2 16.84 2.84V6.48C16.92 6.37333 17 6.26667 17.08 6.16C17.16 6.02667 17.2533 5.92 17.36 5.84L22.52 1.48C22.7067 1.32 22.9333 1.2 23.2 1.12C23.4933 1.04 23.8133 1 24.16 1H30.32C30.9867 1 31.4267 1.17333 31.64 1.52C31.8533 1.84 31.8267 2.29333 31.56 2.88L27.72 11.68C29.16 11.8667 30.3067 12.48 31.16 13.52C32.0133 14.56 32.44 15.88 32.44 17.48V28.76C32.44 29.1067 32.3867 29.4 32.28 29.64C32.2 29.88 32.0667 30.08 31.88 30.24L26.68 34.56C26.5733 34.6667 26.4 34.76 26.16 34.84C25.9467 34.92 25.7067 34.96 25.44 34.96H19.28C18.64 34.96 18.1733 34.8133 17.88 34.52C17.5867 34.2267 17.44 33.76 17.44 33.12V25.32C17.44 25.0533 17.3867 24.84 17.28 24.68C17.1733 24.52 17.0267 24.4267 16.84 24.4V28.76C16.84 29.1067 16.7867 29.4 16.68 29.64C16.6 29.88 16.4667 30.08 16.28 30.24Z" fill="#32B3B3"/>
<path d="M53.8681 34.96H36.8281C36.1881 34.96 35.7214 34.8133 35.4281 34.52C35.1348 34.2267 34.9881 33.76 34.9881 33.12V28.36C34.9881 28.0133 35.0281 27.72 35.1081 27.48C35.2148 27.24 35.3614 27.04 35.5481 26.88L40.3881 22.8V13.88H36.8281C36.1881 13.88 35.7214 13.7333 35.4281 13.44C35.1348 13.1467 34.9881 12.68 34.9881 12.04V7.2C34.9881 6.85333 35.0281 6.56 35.1081 6.32C35.2148 6.08 35.3614 5.88 35.5481 5.72L40.7081 1.36C40.8414 1.25333 41.0148 1.17333 41.2281 1.12C41.4681 1.04 41.7214 1 41.9881 1H59.0281C59.6681 1 60.1348 1.14667 60.4281 1.44C60.7215 1.73333 60.8681 2.2 60.8681 2.84V7.68C60.8681 8.02667 60.8148 8.32 60.7081 8.56C60.6281 8.8 60.4948 9 60.3081 9.16L55.5481 13.16V22.16H59.0281C59.6681 22.16 60.1348 22.3067 60.4281 22.6C60.7215 22.8933 60.8681 23.36 60.8681 24V28.76C60.8681 29.1067 60.8148 29.4 60.7081 29.64C60.6281 29.88 60.4948 30.08 60.3081 30.24L55.1081 34.56C55.0014 34.6667 54.8281 34.76 54.5881 34.84C54.3748 34.92 54.1348 34.96 53.8681 34.96ZM41.9881 30.2H59.0281C59.5348 30.2 59.8948 30.0933 60.1081 29.88C60.3481 29.64 60.4681 29.2667 60.4681 28.76V24C60.4681 23.4933 60.3481 23.1333 60.1081 22.92C59.8948 22.68 59.5348 22.56 59.0281 22.56H55.1481V9.12H59.0281C59.5348 9.12 59.8948 9.01333 60.1081 8.8C60.3481 8.56 60.4681 8.18667 60.4681 7.68V2.84C60.4681 2.33333 60.3481 1.97333 60.1081 1.76C59.8948 1.52 59.5348 1.4 59.0281 1.4H41.9881C41.4814 1.4 41.1081 1.52 40.8681 1.76C40.6548 1.97333 40.5481 2.33333 40.5481 2.84V7.68C40.5481 8.18667 40.6548 8.56 40.8681 8.8C41.1081 9.01333 41.4814 9.12 41.9881 9.12H45.9481V22.56H41.9881C41.4814 22.56 41.1081 22.68 40.8681 22.92C40.6548 23.1333 40.5481 23.4933 40.5481 24V28.76C40.5481 29.2667 40.6548 29.64 40.8681 29.88C41.1081 30.0933 41.4814 30.2 41.9881 30.2ZM56.8681 26.6H44.1481V26.2H50.3481V5.4H44.1481V5H56.8681V5.4H50.7481V26.2H56.8681V26.6Z" fill="#32B3B3"/>
<path d="M86.8312 32.84C86.0046 33.5333 84.9512 34.0533 83.6712 34.4C82.3912 34.7733 80.8846 34.96 79.1512 34.96H65.6712C65.0312 34.96 64.5646 34.8133 64.2712 34.52C63.9779 34.2267 63.8312 33.76 63.8312 33.12V7.2C63.8312 6.85333 63.8712 6.56 63.9512 6.32C64.0579 6.08 64.2046 5.88 64.3912 5.72L69.5512 1.36C69.6846 1.25333 69.8579 1.17333 70.0712 1.12C70.3112 1.04 70.5646 1 70.8312 1H84.3112C87.8046 1 90.3779 1.70667 92.0312 3.12C93.7112 4.53333 94.5512 6.68 94.5512 9.56V22.04C94.5512 23.48 94.3379 24.7467 93.9112 25.84C93.4846 26.9067 92.8579 27.8 92.0312 28.52L86.8312 32.84ZM84.3112 30.2C87.6446 30.2 90.1112 29.5333 91.7112 28.2C93.3379 26.8667 94.1512 24.8133 94.1512 22.04V9.56C94.1512 6.78667 93.3379 4.73333 91.7112 3.4C90.1112 2.06667 87.6446 1.4 84.3112 1.4H70.8312C70.3246 1.4 69.9512 1.52 69.7112 1.76C69.4979 1.97333 69.3912 2.33333 69.3912 2.84V28.76C69.3912 29.2667 69.4979 29.64 69.7112 29.88C69.9512 30.0933 70.3246 30.2 70.8312 30.2H84.3112ZM73.7512 26.6V5H83.4312C84.7912 5 85.8846 5.14667 86.7112 5.44C87.5646 5.73333 88.2179 6.13333 88.6712 6.64C89.1246 7.12 89.4312 7.70667 89.5912 8.4C89.7512 9.06667 89.8312 9.78667 89.8312 10.56V21.16C89.8312 21.9333 89.7512 22.6533 89.5912 23.32C89.4579 23.9867 89.1646 24.56 88.7112 25.04C88.2579 25.52 87.6046 25.9067 86.7512 26.2C85.8979 26.4667 84.7912 26.6 83.4312 26.6H73.7512ZM83.4312 5.4H74.1512V26.2H83.4312C84.7112 26.2 85.7379 26.08 86.5112 25.84C87.3112 25.5733 87.9246 25.2267 88.3512 24.8C88.7779 24.3467 89.0579 23.8133 89.1912 23.2C89.3512 22.56 89.4312 21.88 89.4312 21.16V10.56C89.4312 9.84 89.3512 9.16 89.1912 8.52C89.0312 7.88 88.7379 7.33333 88.3112 6.88C87.8846 6.42667 87.2712 6.06667 86.4712 5.8C85.6979 5.53333 84.6846 5.4 83.4312 5.4ZM78.4712 9.04H83.2312C83.8712 9.04 84.3379 9.2 84.6312 9.52C84.9512 9.81333 85.1112 10.2933 85.1112 10.96V20.68C85.1112 21.3467 84.9512 21.84 84.6312 22.16C84.3379 22.48 83.8712 22.64 83.2312 22.64H78.4712V9.04ZM79.5512 15.32C79.5512 14.9733 79.4979 14.68 79.3912 14.44C79.2846 14.2 79.1112 14.0267 78.8712 13.92V22.24H79.5512V15.32Z" fill="#32B3B3"/>
<path d="M120.987 26.6H120.587V5H120.987V15.64H129.667L134.267 5H134.707L130.107 15.64H131.747C133.374 15.64 134.587 15.9467 135.387 16.56C136.187 17.1733 136.587 18.1733 136.587 19.56V26.6H136.187V19.56C136.187 18.28 135.814 17.3733 135.067 16.84C134.32 16.3067 133.214 16.04 131.747 16.04H120.987V26.6ZM123.867 30.2C124.374 30.2 124.734 30.0933 124.947 29.88C125.187 29.64 125.307 29.2667 125.307 28.76V19.6H130.587C131.014 19.6 131.334 19.72 131.547 19.96C131.761 20.2 131.867 20.5333 131.867 20.96V28.76C131.867 29.2667 131.974 29.64 132.187 29.88C132.427 30.0933 132.801 30.2 133.307 30.2H139.467C139.974 30.2 140.334 30.0933 140.547 29.88C140.787 29.64 140.907 29.2667 140.907 28.76V17.48C140.907 15.88 140.454 14.6 139.547 13.64C138.667 12.6533 137.48 12.12 135.987 12.04L140.067 2.72C140.254 2.29333 140.267 1.97333 140.107 1.76C139.947 1.52 139.641 1.4 139.187 1.4H133.027C132.521 1.4 132.107 1.50667 131.787 1.72C131.467 1.90667 131.214 2.24 131.027 2.72L126.907 12.04H125.307V2.84C125.307 2.33333 125.187 1.97333 124.947 1.76C124.734 1.52 124.374 1.4 123.867 1.4H117.667C117.161 1.4 116.787 1.52 116.547 1.76C116.334 1.97333 116.227 2.33333 116.227 2.84V28.76C116.227 29.2667 116.334 29.64 116.547 29.88C116.787 30.0933 117.161 30.2 117.667 30.2H123.867ZM125.147 30.24L119.947 34.56C119.841 34.6667 119.667 34.76 119.427 34.84C119.214 34.92 118.974 34.96 118.707 34.96H112.507C111.867 34.96 111.401 34.8133 111.107 34.52C110.814 34.2267 110.667 33.76 110.667 33.12V7.2C110.667 6.85333 110.707 6.56 110.787 6.32C110.894 6.08 111.041 5.88 111.227 5.72L116.387 1.36C116.521 1.25333 116.694 1.17333 116.907 1.12C117.147 1.04 117.401 1 117.667 1H123.867C124.507 1 124.974 1.14667 125.267 1.44C125.561 1.73333 125.707 2.2 125.707 2.84V6.48C125.787 6.37333 125.867 6.26667 125.947 6.16C126.027 6.02667 126.121 5.92 126.227 5.84L131.387 1.48C131.574 1.32 131.801 1.2 132.067 1.12C132.361 1.04 132.681 1 133.027 1H139.187C139.854 1 140.294 1.17333 140.507 1.52C140.721 1.84 140.694 2.29333 140.427 2.88L136.587 11.68C138.027 11.8667 139.174 12.48 140.027 13.52C140.881 14.56 141.307 15.88 141.307 17.48V28.76C141.307 29.1067 141.254 29.4 141.147 29.64C141.067 29.88 140.934 30.08 140.747 30.24L135.547 34.56C135.441 34.6667 135.267 34.76 135.027 34.84C134.814 34.92 134.574 34.96 134.307 34.96H128.147C127.507 34.96 127.041 34.8133 126.747 34.52C126.454 34.2267 126.307 33.76 126.307 33.12V25.32C126.307 25.0533 126.254 24.84 126.147 24.68C126.041 24.52 125.894 24.4267 125.707 24.4V28.76C125.707 29.1067 125.654 29.4 125.547 29.64C125.467 29.88 125.334 30.08 125.147 30.24Z" fill="#32B3B3"/>
<path d="M162.735 34.96H145.695C145.055 34.96 144.589 34.8133 144.295 34.52C144.002 34.2267 143.855 33.76 143.855 33.12V28.36C143.855 28.0133 143.895 27.72 143.975 27.48C144.082 27.24 144.229 27.04 144.415 26.88L149.255 22.8V13.88H145.695C145.055 13.88 144.589 13.7333 144.295 13.44C144.002 13.1467 143.855 12.68 143.855 12.04V7.2C143.855 6.85333 143.895 6.56 143.975 6.32C144.082 6.08 144.229 5.88 144.415 5.72L149.575 1.36C149.709 1.25333 149.882 1.17333 150.095 1.12C150.335 1.04 150.589 1 150.855 1H167.895C168.535 1 169.002 1.14667 169.295 1.44C169.589 1.73333 169.735 2.2 169.735 2.84V7.68C169.735 8.02667 169.682 8.32 169.575 8.56C169.495 8.8 169.362 9 169.175 9.16L164.415 13.16V22.16H167.895C168.535 22.16 169.002 22.3067 169.295 22.6C169.589 22.8933 169.735 23.36 169.735 24V28.76C169.735 29.1067 169.682 29.4 169.575 29.64C169.495 29.88 169.362 30.08 169.175 30.24L163.975 34.56C163.869 34.6667 163.695 34.76 163.455 34.84C163.242 34.92 163.002 34.96 162.735 34.96ZM150.855 30.2H167.895C168.402 30.2 168.762 30.0933 168.975 29.88C169.215 29.64 169.335 29.2667 169.335 28.76V24C169.335 23.4933 169.215 23.1333 168.975 22.92C168.762 22.68 168.402 22.56 167.895 22.56H164.015V9.12H167.895C168.402 9.12 168.762 9.01333 168.975 8.8C169.215 8.56 169.335 8.18667 169.335 7.68V2.84C169.335 2.33333 169.215 1.97333 168.975 1.76C168.762 1.52 168.402 1.4 167.895 1.4H150.855C150.349 1.4 149.975 1.52 149.735 1.76C149.522 1.97333 149.415 2.33333 149.415 2.84V7.68C149.415 8.18667 149.522 8.56 149.735 8.8C149.975 9.01333 150.349 9.12 150.855 9.12H154.815V22.56H150.855C150.349 22.56 149.975 22.68 149.735 22.92C149.522 23.1333 149.415 23.4933 149.415 24V28.76C149.415 29.2667 149.522 29.64 149.735 29.88C149.975 30.0933 150.349 30.2 150.855 30.2ZM165.735 26.6H153.015V26.2H159.215V5.4H153.015V5H165.735V5.4H159.615V26.2H165.735V26.6Z" fill="#32B3B3"/>
<path d="M183.538 5.32L198.258 21.88V5H198.658V26.6H198.258V22.48L183.138 5.52C183.112 5.49333 183.072 5.46667 183.018 5.44C182.992 5.41333 182.965 5.4 182.938 5.4C182.912 5.4 182.885 5.41333 182.858 5.44C182.858 5.46667 182.858 5.49333 182.858 5.52V26.6H182.458V5.44C182.458 5.28 182.512 5.16 182.618 5.08C182.725 5 182.832 4.96 182.938 4.96C183.045 4.96 183.138 4.98667 183.218 5.04C183.298 5.09333 183.405 5.18667 183.538 5.32ZM185.698 30.2C186.205 30.2 186.565 30.0933 186.778 29.88C187.018 29.64 187.138 29.2667 187.138 28.76V15.56L193.978 23.84V28.76C193.978 29.2667 194.085 29.64 194.298 29.88C194.538 30.0933 194.912 30.2 195.418 30.2H201.418C201.925 30.2 202.285 30.0933 202.498 29.88C202.738 29.64 202.858 29.2667 202.858 28.76V2.84C202.858 2.33333 202.738 1.97333 202.498 1.76C202.285 1.52 201.925 1.4 201.418 1.4H195.418C194.912 1.4 194.538 1.52 194.298 1.76C194.085 1.97333 193.978 2.33333 193.978 2.84V11.36L186.218 2.48C185.872 2.08 185.512 1.8 185.138 1.64C184.792 1.48 184.365 1.4 183.858 1.4H179.698C179.192 1.4 178.818 1.52 178.578 1.76C178.365 1.97333 178.258 2.33333 178.258 2.84V28.76C178.258 29.2667 178.365 29.64 178.578 29.88C178.818 30.0933 179.192 30.2 179.698 30.2H185.698ZM186.978 30.24L181.778 34.56C181.672 34.6667 181.498 34.76 181.258 34.84C181.045 34.92 180.805 34.96 180.538 34.96H174.538C173.898 34.96 173.432 34.8133 173.138 34.52C172.845 34.2267 172.698 33.76 172.698 33.12V7.2C172.698 6.85333 172.738 6.56 172.818 6.32C172.925 6.08 173.072 5.88 173.258 5.72L178.418 1.36C178.552 1.25333 178.725 1.17333 178.938 1.12C179.178 1.04 179.432 1 179.698 1H183.858C184.445 1 184.938 1.09333 185.338 1.28C185.738 1.46667 186.138 1.77333 186.538 2.2L189.298 5.4L194.138 1.36C194.272 1.25333 194.445 1.17333 194.658 1.12C194.898 1.04 195.152 1 195.418 1H201.418C202.058 1 202.525 1.14667 202.818 1.44C203.112 1.73333 203.258 2.2 203.258 2.84V28.76C203.258 29.1067 203.205 29.4 203.098 29.64C203.018 29.88 202.885 30.08 202.698 30.24L197.498 34.56C197.392 34.6667 197.218 34.76 196.978 34.84C196.765 34.92 196.525 34.96 196.258 34.96H190.258C189.618 34.96 189.152 34.8133 188.858 34.52C188.565 34.2267 188.418 33.76 188.418 33.12V28.36L187.538 27.28V28.76C187.538 29.1067 187.485 29.4 187.378 29.64C187.298 29.88 187.165 30.08 186.978 30.24Z" fill="#32B3B3"/>
<path d="M229.2 34.96H216.6C213.107 34.96 210.52 34.0533 208.84 32.24C207.187 30.4267 206.36 28.08 206.36 25.2V13.92C206.36 12.4533 206.573 11.1867 207 10.12C207.427 9.05333 208.053 8.16 208.88 7.44L214.04 3.08C214.867 2.38667 215.92 1.86667 217.2 1.52C218.507 1.17333 220.027 1 221.76 1H231.76C232.4 1 232.867 1.14667 233.16 1.44C233.453 1.73333 233.6 2.2 233.6 2.84V7.68C233.6 8.02667 233.547 8.32 233.44 8.56C233.36 8.8 233.227 9 233.04 9.16L227.84 13.48C227.733 13.5867 227.56 13.68 227.32 13.76C227.107 13.84 226.867 13.88 226.6 13.88H221.4V19.64C221.427 19.5867 221.467 19.5333 221.52 19.48C221.6 19.4 221.667 19.3333 221.72 19.28L226.88 14.92C227.013 14.8133 227.187 14.7333 227.4 14.68C227.64 14.6 227.893 14.56 228.16 14.56H234.36C235 14.56 235.467 14.7067 235.76 15C236.053 15.2933 236.2 15.76 236.2 16.4V28.76C236.2 29.1067 236.147 29.4 236.04 29.64C235.96 29.88 235.827 30.08 235.64 30.24L230.44 34.56C230.333 34.6667 230.16 34.76 229.92 34.84C229.707 34.92 229.467 34.96 229.2 34.96ZM234.36 30.2C234.867 30.2 235.227 30.0933 235.44 29.88C235.68 29.64 235.8 29.2667 235.8 28.76V16.4C235.8 15.8933 235.68 15.5333 235.44 15.32C235.227 15.08 234.867 14.96 234.36 14.96H228.16C227.653 14.96 227.28 15.08 227.04 15.32C226.827 15.5333 226.72 15.8933 226.72 16.4V22.64H222.84C222.227 22.64 221.76 22.48 221.44 22.16C221.147 21.84 221 21.3467 221 20.68V11.12C221 10.4533 221.2 9.96 221.6 9.64C222 9.29333 222.613 9.12 223.44 9.12H231.76C232.267 9.12 232.627 9.01333 232.84 8.8C233.08 8.56 233.2 8.18667 233.2 7.68V2.84C233.2 2.33333 233.08 1.97333 232.84 1.76C232.627 1.52 232.267 1.4 231.76 1.4H221.76C218.427 1.4 215.947 2.06667 214.32 3.4C212.72 4.73333 211.92 6.78667 211.92 9.56V22.04C211.92 24.8133 212.72 26.8667 214.32 28.2C215.947 29.5333 218.427 30.2 221.76 30.2H234.36ZM223.48 26.6C222.013 26.6 220.813 26.5067 219.88 26.32C218.947 26.1333 218.213 25.84 217.68 25.44C217.147 25.0133 216.773 24.48 216.56 23.84C216.373 23.1733 216.28 22.3733 216.28 21.44V10.24C216.28 8.34667 216.707 7 217.56 6.2C218.413 5.4 220.12 5 222.68 5H229.6V5.4H222.68C220.333 5.4 218.747 5.77333 217.92 6.52C217.093 7.24 216.68 8.48 216.68 10.24V21.44C216.68 23.1733 217.133 24.4 218.04 25.12C218.973 25.84 220.787 26.2 223.48 26.2H231.04V18.56H231.44V26.6H223.48Z" fill="#32B3B3"/>
<path d="M12.12 26.6H11.72V5H12.12V15.64H20.8L25.4 5H25.84L21.24 15.64H22.88C24.5067 15.64 25.72 15.9467 26.52 16.56C27.32 17.1733 27.72 18.1733 27.72 19.56V26.6H27.32V19.56C27.32 18.28 26.9467 17.3733 26.2 16.84C25.4533 16.3067 24.3467 16.04 22.88 16.04H12.12V26.6ZM15 30.2C15.5067 30.2 15.8667 30.0933 16.08 29.88C16.32 29.64 16.44 29.2667 16.44 28.76V19.6H21.72C22.1467 19.6 22.4667 19.72 22.68 19.96C22.8933 20.2 23 20.5333 23 20.96V28.76C23 29.2667 23.1067 29.64 23.32 29.88C23.56 30.0933 23.9333 30.2 24.44 30.2H30.6C31.1067 30.2 31.4667 30.0933 31.68 29.88C31.92 29.64 32.04 29.2667 32.04 28.76V17.48C32.04 15.88 31.5867 14.6 30.68 13.64C29.8 12.6533 28.6133 12.12 27.12 12.04L31.2 2.72C31.3867 2.29333 31.4 1.97333 31.24 1.76C31.08 1.52 30.7733 1.4 30.32 1.4H24.16C23.6533 1.4 23.24 1.50667 22.92 1.72C22.6 1.90667 22.3467 2.24 22.16 2.72L18.04 12.04H16.44V2.84C16.44 2.33333 16.32 1.97333 16.08 1.76C15.8667 1.52 15.5067 1.4 15 1.4H8.79999C8.29332 1.4 7.91999 1.52 7.67999 1.76C7.46665 1.97333 7.35999 2.33333 7.35999 2.84V28.76C7.35999 29.2667 7.46665 29.64 7.67999 29.88C7.91999 30.0933 8.29332 30.2 8.79999 30.2H15ZM16.28 30.24L11.08 34.56C10.9733 34.6667 10.8 34.76 10.56 34.84C10.3467 34.92 10.1067 34.96 9.83999 34.96H3.63999C2.99999 34.96 2.53332 34.8133 2.23999 34.52C1.94665 34.2267 1.79999 33.76 1.79999 33.12V7.2C1.79999 6.85333 1.83999 6.56 1.91999 6.32C2.02665 6.08 2.17332 5.88 2.35999 5.72L7.51999 1.36C7.65332 1.25333 7.82665 1.17333 8.03999 1.12C8.27999 1.04 8.53332 1 8.79999 1H15C15.64 1 16.1067 1.14667 16.4 1.44C16.6933 1.73333 16.84 2.2 16.84 2.84V6.48C16.92 6.37333 17 6.26667 17.08 6.16C17.16 6.02667 17.2533 5.92 17.36 5.84L22.52 1.48C22.7067 1.32 22.9333 1.2 23.2 1.12C23.4933 1.04 23.8133 1 24.16 1H30.32C30.9867 1 31.4267 1.17333 31.64 1.52C31.8533 1.84 31.8267 2.29333 31.56 2.88L27.72 11.68C29.16 11.8667 30.3067 12.48 31.16 13.52C32.0133 14.56 32.44 15.88 32.44 17.48V28.76C32.44 29.1067 32.3867 29.4 32.28 29.64C32.2 29.88 32.0667 30.08 31.88 30.24L26.68 34.56C26.5733 34.6667 26.4 34.76 26.16 34.84C25.9467 34.92 25.7067 34.96 25.44 34.96H19.28C18.64 34.96 18.1733 34.8133 17.88 34.52C17.5867 34.2267 17.44 33.76 17.44 33.12V25.32C17.44 25.0533 17.3867 24.84 17.28 24.68C17.1733 24.52 17.0267 24.4267 16.84 24.4V28.76C16.84 29.1067 16.7867 29.4 16.68 29.64C16.6 29.88 16.4667 30.08 16.28 30.24Z" stroke="#32B2B2" stroke-opacity="0.5" stroke-width="2"/>
<path d="M12.12 26.6H11.72V5H12.12V15.64H20.8L25.4 5H25.84L21.24 15.64H22.88C24.5067 15.64 25.72 15.9467 26.52 16.56C27.32 17.1733 27.72 18.1733 27.72 19.56V26.6H27.32V19.56C27.32 18.28 26.9467 17.3733 26.2 16.84C25.4533 16.3067 24.3467 16.04 22.88 16.04H12.12V26.6ZM15 30.2C15.5067 30.2 15.8667 30.0933 16.08 29.88C16.32 29.64 16.44 29.2667 16.44 28.76V19.6H21.72C22.1467 19.6 22.4667 19.72 22.68 19.96C22.8933 20.2 23 20.5333 23 20.96V28.76C23 29.2667 23.1067 29.64 23.32 29.88C23.56 30.0933 23.9333 30.2 24.44 30.2H30.6C31.1067 30.2 31.4667 30.0933 31.68 29.88C31.92 29.64 32.04 29.2667 32.04 28.76V17.48C32.04 15.88 31.5867 14.6 30.68 13.64C29.8 12.6533 28.6133 12.12 27.12 12.04L31.2 2.72C31.3867 2.29333 31.4 1.97333 31.24 1.76C31.08 1.52 30.7733 1.4 30.32 1.4H24.16C23.6533 1.4 23.24 1.50667 22.92 1.72C22.6 1.90667 22.3467 2.24 22.16 2.72L18.04 12.04H16.44V2.84C16.44 2.33333 16.32 1.97333 16.08 1.76C15.8667 1.52 15.5067 1.4 15 1.4H8.79999C8.29332 1.4 7.91999 1.52 7.67999 1.76C7.46665 1.97333 7.35999 2.33333 7.35999 2.84V28.76C7.35999 29.2667 7.46665 29.64 7.67999 29.88C7.91999 30.0933 8.29332 30.2 8.79999 30.2H15ZM16.28 30.24L11.08 34.56C10.9733 34.6667 10.8 34.76 10.56 34.84C10.3467 34.92 10.1067 34.96 9.83999 34.96H3.63999C2.99999 34.96 2.53332 34.8133 2.23999 34.52C1.94665 34.2267 1.79999 33.76 1.79999 33.12V7.2C1.79999 6.85333 1.83999 6.56 1.91999 6.32C2.02665 6.08 2.17332 5.88 2.35999 5.72L7.51999 1.36C7.65332 1.25333 7.82665 1.17333 8.03999 1.12C8.27999 1.04 8.53332 1 8.79999 1H15C15.64 1 16.1067 1.14667 16.4 1.44C16.6933 1.73333 16.84 2.2 16.84 2.84V6.48C16.92 6.37333 17 6.26667 17.08 6.16C17.16 6.02667 17.2533 5.92 17.36 5.84L22.52 1.48C22.7067 1.32 22.9333 1.2 23.2 1.12C23.4933 1.04 23.8133 1 24.16 1H30.32C30.9867 1 31.4267 1.17333 31.64 1.52C31.8533 1.84 31.8267 2.29333 31.56 2.88L27.72 11.68C29.16 11.8667 30.3067 12.48 31.16 13.52C32.0133 14.56 32.44 15.88 32.44 17.48V28.76C32.44 29.1067 32.3867 29.4 32.28 29.64C32.2 29.88 32.0667 30.08 31.88 30.24L26.68 34.56C26.5733 34.6667 26.4 34.76 26.16 34.84C25.9467 34.92 25.7067 34.96 25.44 34.96H19.28C18.64 34.96 18.1733 34.8133 17.88 34.52C17.5867 34.2267 17.44 33.76 17.44 33.12V25.32C17.44 25.0533 17.3867 24.84 17.28 24.68C17.1733 24.52 17.0267 24.4267 16.84 24.4V28.76C16.84 29.1067 16.7867 29.4 16.68 29.64C16.6 29.88 16.4667 30.08 16.28 30.24Z" stroke="black" stroke-width="2"/>
<path d="M53.8681 34.96H36.8281C36.1881 34.96 35.7214 34.8133 35.4281 34.52C35.1348 34.2267 34.9881 33.76 34.9881 33.12V28.36C34.9881 28.0133 35.0281 27.72 35.1081 27.48C35.2148 27.24 35.3614 27.04 35.5481 26.88L40.3881 22.8V13.88H36.8281C36.1881 13.88 35.7214 13.7333 35.4281 13.44C35.1348 13.1467 34.9881 12.68 34.9881 12.04V7.2C34.9881 6.85333 35.0281 6.56 35.1081 6.32C35.2148 6.08 35.3614 5.88 35.5481 5.72L40.7081 1.36C40.8414 1.25333 41.0148 1.17333 41.2281 1.12C41.4681 1.04 41.7214 1 41.9881 1H59.0281C59.6681 1 60.1348 1.14667 60.4281 1.44C60.7215 1.73333 60.8681 2.2 60.8681 2.84V7.68C60.8681 8.02667 60.8148 8.32 60.7081 8.56C60.6281 8.8 60.4948 9 60.3081 9.16L55.5481 13.16V22.16H59.0281C59.6681 22.16 60.1348 22.3067 60.4281 22.6C60.7215 22.8933 60.8681 23.36 60.8681 24V28.76C60.8681 29.1067 60.8148 29.4 60.7081 29.64C60.6281 29.88 60.4948 30.08 60.3081 30.24L55.1081 34.56C55.0014 34.6667 54.8281 34.76 54.5881 34.84C54.3748 34.92 54.1348 34.96 53.8681 34.96ZM41.9881 30.2H59.0281C59.5348 30.2 59.8948 30.0933 60.1081 29.88C60.3481 29.64 60.4681 29.2667 60.4681 28.76V24C60.4681 23.4933 60.3481 23.1333 60.1081 22.92C59.8948 22.68 59.5348 22.56 59.0281 22.56H55.1481V9.12H59.0281C59.5348 9.12 59.8948 9.01333 60.1081 8.8C60.3481 8.56 60.4681 8.18667 60.4681 7.68V2.84C60.4681 2.33333 60.3481 1.97333 60.1081 1.76C59.8948 1.52 59.5348 1.4 59.0281 1.4H41.9881C41.4814 1.4 41.1081 1.52 40.8681 1.76C40.6548 1.97333 40.5481 2.33333 40.5481 2.84V7.68C40.5481 8.18667 40.6548 8.56 40.8681 8.8C41.1081 9.01333 41.4814 9.12 41.9881 9.12H45.9481V22.56H41.9881C41.4814 22.56 41.1081 22.68 40.8681 22.92C40.6548 23.1333 40.5481 23.4933 40.5481 24V28.76C40.5481 29.2667 40.6548 29.64 40.8681 29.88C41.1081 30.0933 41.4814 30.2 41.9881 30.2ZM56.8681 26.6H44.1481V26.2H50.3481V5.4H44.1481V5H56.8681V5.4H50.7481V26.2H56.8681V26.6Z" stroke="#32B2B2" stroke-opacity="0.5" stroke-width="2"/>
<path d="M53.8681 34.96H36.8281C36.1881 34.96 35.7214 34.8133 35.4281 34.52C35.1348 34.2267 34.9881 33.76 34.9881 33.12V28.36C34.9881 28.0133 35.0281 27.72 35.1081 27.48C35.2148 27.24 35.3614 27.04 35.5481 26.88L40.3881 22.8V13.88H36.8281C36.1881 13.88 35.7214 13.7333 35.4281 13.44C35.1348 13.1467 34.9881 12.68 34.9881 12.04V7.2C34.9881 6.85333 35.0281 6.56 35.1081 6.32C35.2148 6.08 35.3614 5.88 35.5481 5.72L40.7081 1.36C40.8414 1.25333 41.0148 1.17333 41.2281 1.12C41.4681 1.04 41.7214 1 41.9881 1H59.0281C59.6681 1 60.1348 1.14667 60.4281 1.44C60.7215 1.73333 60.8681 2.2 60.8681 2.84V7.68C60.8681 8.02667 60.8148 8.32 60.7081 8.56C60.6281 8.8 60.4948 9 60.3081 9.16L55.5481 13.16V22.16H59.0281C59.6681 22.16 60.1348 22.3067 60.4281 22.6C60.7215 22.8933 60.8681 23.36 60.8681 24V28.76C60.8681 29.1067 60.8148 29.4 60.7081 29.64C60.6281 29.88 60.4948 30.08 60.3081 30.24L55.1081 34.56C55.0014 34.6667 54.8281 34.76 54.5881 34.84C54.3748 34.92 54.1348 34.96 53.8681 34.96ZM41.9881 30.2H59.0281C59.5348 30.2 59.8948 30.0933 60.1081 29.88C60.3481 29.64 60.4681 29.2667 60.4681 28.76V24C60.4681 23.4933 60.3481 23.1333 60.1081 22.92C59.8948 22.68 59.5348 22.56 59.0281 22.56H55.1481V9.12H59.0281C59.5348 9.12 59.8948 9.01333 60.1081 8.8C60.3481 8.56 60.4681 8.18667 60.4681 7.68V2.84C60.4681 2.33333 60.3481 1.97333 60.1081 1.76C59.8948 1.52 59.5348 1.4 59.0281 1.4H41.9881C41.4814 1.4 41.1081 1.52 40.8681 1.76C40.6548 1.97333 40.5481 2.33333 40.5481 2.84V7.68C40.5481 8.18667 40.6548 8.56 40.8681 8.8C41.1081 9.01333 41.4814 9.12 41.9881 9.12H45.9481V22.56H41.9881C41.4814 22.56 41.1081 22.68 40.8681 22.92C40.6548 23.1333 40.5481 23.4933 40.5481 24V28.76C40.5481 29.2667 40.6548 29.64 40.8681 29.88C41.1081 30.0933 41.4814 30.2 41.9881 30.2ZM56.8681 26.6H44.1481V26.2H50.3481V5.4H44.1481V5H56.8681V5.4H50.7481V26.2H56.8681V26.6Z" stroke="black" stroke-width="2"/>
<path d="M86.8312 32.84C86.0046 33.5333 84.9512 34.0533 83.6712 34.4C82.3912 34.7733 80.8846 34.96 79.1512 34.96H65.6712C65.0312 34.96 64.5646 34.8133 64.2712 34.52C63.9779 34.2267 63.8312 33.76 63.8312 33.12V7.2C63.8312 6.85333 63.8712 6.56 63.9512 6.32C64.0579 6.08 64.2046 5.88 64.3912 5.72L69.5512 1.36C69.6846 1.25333 69.8579 1.17333 70.0712 1.12C70.3112 1.04 70.5646 1 70.8312 1H84.3112C87.8046 1 90.3779 1.70667 92.0312 3.12C93.7112 4.53333 94.5512 6.68 94.5512 9.56V22.04C94.5512 23.48 94.3379 24.7467 93.9112 25.84C93.4846 26.9067 92.8579 27.8 92.0312 28.52L86.8312 32.84ZM84.3112 30.2C87.6446 30.2 90.1112 29.5333 91.7112 28.2C93.3379 26.8667 94.1512 24.8133 94.1512 22.04V9.56C94.1512 6.78667 93.3379 4.73333 91.7112 3.4C90.1112 2.06667 87.6446 1.4 84.3112 1.4H70.8312C70.3246 1.4 69.9512 1.52 69.7112 1.76C69.4979 1.97333 69.3912 2.33333 69.3912 2.84V28.76C69.3912 29.2667 69.4979 29.64 69.7112 29.88C69.9512 30.0933 70.3246 30.2 70.8312 30.2H84.3112ZM73.7512 26.6V5H83.4312C84.7912 5 85.8846 5.14667 86.7112 5.44C87.5646 5.73333 88.2179 6.13333 88.6712 6.64C89.1246 7.12 89.4312 7.70667 89.5912 8.4C89.7512 9.06667 89.8312 9.78667 89.8312 10.56V21.16C89.8312 21.9333 89.7512 22.6533 89.5912 23.32C89.4579 23.9867 89.1646 24.56 88.7112 25.04C88.2579 25.52 87.6046 25.9067 86.7512 26.2C85.8979 26.4667 84.7912 26.6 83.4312 26.6H73.7512ZM83.4312 5.4H74.1512V26.2H83.4312C84.7112 26.2 85.7379 26.08 86.5112 25.84C87.3112 25.5733 87.9246 25.2267 88.3512 24.8C88.7779 24.3467 89.0579 23.8133 89.1912 23.2C89.3512 22.56 89.4312 21.88 89.4312 21.16V10.56C89.4312 9.84 89.3512 9.16 89.1912 8.52C89.0312 7.88 88.7379 7.33333 88.3112 6.88C87.8846 6.42667 87.2712 6.06667 86.4712 5.8C85.6979 5.53333 84.6846 5.4 83.4312 5.4ZM78.4712 9.04H83.2312C83.8712 9.04 84.3379 9.2 84.6312 9.52C84.9512 9.81333 85.1112 10.2933 85.1112 10.96V20.68C85.1112 21.3467 84.9512 21.84 84.6312 22.16C84.3379 22.48 83.8712 22.64 83.2312 22.64H78.4712V9.04ZM79.5512 15.32C79.5512 14.9733 79.4979 14.68 79.3912 14.44C79.2846 14.2 79.1112 14.0267 78.8712 13.92V22.24H79.5512V15.32Z" stroke="#32B2B2" stroke-opacity="0.5" stroke-width="2"/>
<path d="M86.8312 32.84C86.0046 33.5333 84.9512 34.0533 83.6712 34.4C82.3912 34.7733 80.8846 34.96 79.1512 34.96H65.6712C65.0312 34.96 64.5646 34.8133 64.2712 34.52C63.9779 34.2267 63.8312 33.76 63.8312 33.12V7.2C63.8312 6.85333 63.8712 6.56 63.9512 6.32C64.0579 6.08 64.2046 5.88 64.3912 5.72L69.5512 1.36C69.6846 1.25333 69.8579 1.17333 70.0712 1.12C70.3112 1.04 70.5646 1 70.8312 1H84.3112C87.8046 1 90.3779 1.70667 92.0312 3.12C93.7112 4.53333 94.5512 6.68 94.5512 9.56V22.04C94.5512 23.48 94.3379 24.7467 93.9112 25.84C93.4846 26.9067 92.8579 27.8 92.0312 28.52L86.8312 32.84ZM84.3112 30.2C87.6446 30.2 90.1112 29.5333 91.7112 28.2C93.3379 26.8667 94.1512 24.8133 94.1512 22.04V9.56C94.1512 6.78667 93.3379 4.73333 91.7112 3.4C90.1112 2.06667 87.6446 1.4 84.3112 1.4H70.8312C70.3246 1.4 69.9512 1.52 69.7112 1.76C69.4979 1.97333 69.3912 2.33333 69.3912 2.84V28.76C69.3912 29.2667 69.4979 29.64 69.7112 29.88C69.9512 30.0933 70.3246 30.2 70.8312 30.2H84.3112ZM73.7512 26.6V5H83.4312C84.7912 5 85.8846 5.14667 86.7112 5.44C87.5646 5.73333 88.2179 6.13333 88.6712 6.64C89.1246 7.12 89.4312 7.70667 89.5912 8.4C89.7512 9.06667 89.8312 9.78667 89.8312 10.56V21.16C89.8312 21.9333 89.7512 22.6533 89.5912 23.32C89.4579 23.9867 89.1646 24.56 88.7112 25.04C88.2579 25.52 87.6046 25.9067 86.7512 26.2C85.8979 26.4667 84.7912 26.6 83.4312 26.6H73.7512ZM83.4312 5.4H74.1512V26.2H83.4312C84.7112 26.2 85.7379 26.08 86.5112 25.84C87.3112 25.5733 87.9246 25.2267 88.3512 24.8C88.7779 24.3467 89.0579 23.8133 89.1912 23.2C89.3512 22.56 89.4312 21.88 89.4312 21.16V10.56C89.4312 9.84 89.3512 9.16 89.1912 8.52C89.0312 7.88 88.7379 7.33333 88.3112 6.88C87.8846 6.42667 87.2712 6.06667 86.4712 5.8C85.6979 5.53333 84.6846 5.4 83.4312 5.4ZM78.4712 9.04H83.2312C83.8712 9.04 84.3379 9.2 84.6312 9.52C84.9512 9.81333 85.1112 10.2933 85.1112 10.96V20.68C85.1112 21.3467 84.9512 21.84 84.6312 22.16C84.3379 22.48 83.8712 22.64 83.2312 22.64H78.4712V9.04ZM79.5512 15.32C79.5512 14.9733 79.4979 14.68 79.3912 14.44C79.2846 14.2 79.1112 14.0267 78.8712 13.92V22.24H79.5512V15.32Z" stroke="black" stroke-width="2"/>
<path d="M120.987 26.6H120.587V5H120.987V15.64H129.667L134.267 5H134.707L130.107 15.64H131.747C133.374 15.64 134.587 15.9467 135.387 16.56C136.187 17.1733 136.587 18.1733 136.587 19.56V26.6H136.187V19.56C136.187 18.28 135.814 17.3733 135.067 16.84C134.32 16.3067 133.214 16.04 131.747 16.04H120.987V26.6ZM123.867 30.2C124.374 30.2 124.734 30.0933 124.947 29.88C125.187 29.64 125.307 29.2667 125.307 28.76V19.6H130.587C131.014 19.6 131.334 19.72 131.547 19.96C131.761 20.2 131.867 20.5333 131.867 20.96V28.76C131.867 29.2667 131.974 29.64 132.187 29.88C132.427 30.0933 132.801 30.2 133.307 30.2H139.467C139.974 30.2 140.334 30.0933 140.547 29.88C140.787 29.64 140.907 29.2667 140.907 28.76V17.48C140.907 15.88 140.454 14.6 139.547 13.64C138.667 12.6533 137.48 12.12 135.987 12.04L140.067 2.72C140.254 2.29333 140.267 1.97333 140.107 1.76C139.947 1.52 139.641 1.4 139.187 1.4H133.027C132.521 1.4 132.107 1.50667 131.787 1.72C131.467 1.90667 131.214 2.24 131.027 2.72L126.907 12.04H125.307V2.84C125.307 2.33333 125.187 1.97333 124.947 1.76C124.734 1.52 124.374 1.4 123.867 1.4H117.667C117.161 1.4 116.787 1.52 116.547 1.76C116.334 1.97333 116.227 2.33333 116.227 2.84V28.76C116.227 29.2667 116.334 29.64 116.547 29.88C116.787 30.0933 117.161 30.2 117.667 30.2H123.867ZM125.147 30.24L119.947 34.56C119.841 34.6667 119.667 34.76 119.427 34.84C119.214 34.92 118.974 34.96 118.707 34.96H112.507C111.867 34.96 111.401 34.8133 111.107 34.52C110.814 34.2267 110.667 33.76 110.667 33.12V7.2C110.667 6.85333 110.707 6.56 110.787 6.32C110.894 6.08 111.041 5.88 111.227 5.72L116.387 1.36C116.521 1.25333 116.694 1.17333 116.907 1.12C117.147 1.04 117.401 1 117.667 1H123.867C124.507 1 124.974 1.14667 125.267 1.44C125.561 1.73333 125.707 2.2 125.707 2.84V6.48C125.787 6.37333 125.867 6.26667 125.947 6.16C126.027 6.02667 126.121 5.92 126.227 5.84L131.387 1.48C131.574 1.32 131.801 1.2 132.067 1.12C132.361 1.04 132.681 1 133.027 1H139.187C139.854 1 140.294 1.17333 140.507 1.52C140.721 1.84 140.694 2.29333 140.427 2.88L136.587 11.68C138.027 11.8667 139.174 12.48 140.027 13.52C140.881 14.56 141.307 15.88 141.307 17.48V28.76C141.307 29.1067 141.254 29.4 141.147 29.64C141.067 29.88 140.934 30.08 140.747 30.24L135.547 34.56C135.441 34.6667 135.267 34.76 135.027 34.84C134.814 34.92 134.574 34.96 134.307 34.96H128.147C127.507 34.96 127.041 34.8133 126.747 34.52C126.454 34.2267 126.307 33.76 126.307 33.12V25.32C126.307 25.0533 126.254 24.84 126.147 24.68C126.041 24.52 125.894 24.4267 125.707 24.4V28.76C125.707 29.1067 125.654 29.4 125.547 29.64C125.467 29.88 125.334 30.08 125.147 30.24Z" stroke="#32B2B2" stroke-opacity="0.5" stroke-width="2"/>
<path d="M120.987 26.6H120.587V5H120.987V15.64H129.667L134.267 5H134.707L130.107 15.64H131.747C133.374 15.64 134.587 15.9467 135.387 16.56C136.187 17.1733 136.587 18.1733 136.587 19.56V26.6H136.187V19.56C136.187 18.28 135.814 17.3733 135.067 16.84C134.32 16.3067 133.214 16.04 131.747 16.04H120.987V26.6ZM123.867 30.2C124.374 30.2 124.734 30.0933 124.947 29.88C125.187 29.64 125.307 29.2667 125.307 28.76V19.6H130.587C131.014 19.6 131.334 19.72 131.547 19.96C131.761 20.2 131.867 20.5333 131.867 20.96V28.76C131.867 29.2667 131.974 29.64 132.187 29.88C132.427 30.0933 132.801 30.2 133.307 30.2H139.467C139.974 30.2 140.334 30.0933 140.547 29.88C140.787 29.64 140.907 29.2667 140.907 28.76V17.48C140.907 15.88 140.454 14.6 139.547 13.64C138.667 12.6533 137.48 12.12 135.987 12.04L140.067 2.72C140.254 2.29333 140.267 1.97333 140.107 1.76C139.947 1.52 139.641 1.4 139.187 1.4H133.027C132.521 1.4 132.107 1.50667 131.787 1.72C131.467 1.90667 131.214 2.24 131.027 2.72L126.907 12.04H125.307V2.84C125.307 2.33333 125.187 1.97333 124.947 1.76C124.734 1.52 124.374 1.4 123.867 1.4H117.667C117.161 1.4 116.787 1.52 116.547 1.76C116.334 1.97333 116.227 2.33333 116.227 2.84V28.76C116.227 29.2667 116.334 29.64 116.547 29.88C116.787 30.0933 117.161 30.2 117.667 30.2H123.867ZM125.147 30.24L119.947 34.56C119.841 34.6667 119.667 34.76 119.427 34.84C119.214 34.92 118.974 34.96 118.707 34.96H112.507C111.867 34.96 111.401 34.8133 111.107 34.52C110.814 34.2267 110.667 33.76 110.667 33.12V7.2C110.667 6.85333 110.707 6.56 110.787 6.32C110.894 6.08 111.041 5.88 111.227 5.72L116.387 1.36C116.521 1.25333 116.694 1.17333 116.907 1.12C117.147 1.04 117.401 1 117.667 1H123.867C124.507 1 124.974 1.14667 125.267 1.44C125.561 1.73333 125.707 2.2 125.707 2.84V6.48C125.787 6.37333 125.867 6.26667 125.947 6.16C126.027 6.02667 126.121 5.92 126.227 5.84L131.387 1.48C131.574 1.32 131.801 1.2 132.067 1.12C132.361 1.04 132.681 1 133.027 1H139.187C139.854 1 140.294 1.17333 140.507 1.52C140.721 1.84 140.694 2.29333 140.427 2.88L136.587 11.68C138.027 11.8667 139.174 12.48 140.027 13.52C140.881 14.56 141.307 15.88 141.307 17.48V28.76C141.307 29.1067 141.254 29.4 141.147 29.64C141.067 29.88 140.934 30.08 140.747 30.24L135.547 34.56C135.441 34.6667 135.267 34.76 135.027 34.84C134.814 34.92 134.574 34.96 134.307 34.96H128.147C127.507 34.96 127.041 34.8133 126.747 34.52C126.454 34.2267 126.307 33.76 126.307 33.12V25.32C126.307 25.0533 126.254 24.84 126.147 24.68C126.041 24.52 125.894 24.4267 125.707 24.4V28.76C125.707 29.1067 125.654 29.4 125.547 29.64C125.467 29.88 125.334 30.08 125.147 30.24Z" stroke="black" stroke-width="2"/>
<path d="M162.735 34.96H145.695C145.055 34.96 144.589 34.8133 144.295 34.52C144.002 34.2267 143.855 33.76 143.855 33.12V28.36C143.855 28.0133 143.895 27.72 143.975 27.48C144.082 27.24 144.229 27.04 144.415 26.88L149.255 22.8V13.88H145.695C145.055 13.88 144.589 13.7333 144.295 13.44C144.002 13.1467 143.855 12.68 143.855 12.04V7.2C143.855 6.85333 143.895 6.56 143.975 6.32C144.082 6.08 144.229 5.88 144.415 5.72L149.575 1.36C149.709 1.25333 149.882 1.17333 150.095 1.12C150.335 1.04 150.589 1 150.855 1H167.895C168.535 1 169.002 1.14667 169.295 1.44C169.589 1.73333 169.735 2.2 169.735 2.84V7.68C169.735 8.02667 169.682 8.32 169.575 8.56C169.495 8.8 169.362 9 169.175 9.16L164.415 13.16V22.16H167.895C168.535 22.16 169.002 22.3067 169.295 22.6C169.589 22.8933 169.735 23.36 169.735 24V28.76C169.735 29.1067 169.682 29.4 169.575 29.64C169.495 29.88 169.362 30.08 169.175 30.24L163.975 34.56C163.869 34.6667 163.695 34.76 163.455 34.84C163.242 34.92 163.002 34.96 162.735 34.96ZM150.855 30.2H167.895C168.402 30.2 168.762 30.0933 168.975 29.88C169.215 29.64 169.335 29.2667 169.335 28.76V24C169.335 23.4933 169.215 23.1333 168.975 22.92C168.762 22.68 168.402 22.56 167.895 22.56H164.015V9.12H167.895C168.402 9.12 168.762 9.01333 168.975 8.8C169.215 8.56 169.335 8.18667 169.335 7.68V2.84C169.335 2.33333 169.215 1.97333 168.975 1.76C168.762 1.52 168.402 1.4 167.895 1.4H150.855C150.349 1.4 149.975 1.52 149.735 1.76C149.522 1.97333 149.415 2.33333 149.415 2.84V7.68C149.415 8.18667 149.522 8.56 149.735 8.8C149.975 9.01333 150.349 9.12 150.855 9.12H154.815V22.56H150.855C150.349 22.56 149.975 22.68 149.735 22.92C149.522 23.1333 149.415 23.4933 149.415 24V28.76C149.415 29.2667 149.522 29.64 149.735 29.88C149.975 30.0933 150.349 30.2 150.855 30.2ZM165.735 26.6H153.015V26.2H159.215V5.4H153.015V5H165.735V5.4H159.615V26.2H165.735V26.6Z" stroke="#32B2B2" stroke-opacity="0.5" stroke-width="2"/>
<path d="M162.735 34.96H145.695C145.055 34.96 144.589 34.8133 144.295 34.52C144.002 34.2267 143.855 33.76 143.855 33.12V28.36C143.855 28.0133 143.895 27.72 143.975 27.48C144.082 27.24 144.229 27.04 144.415 26.88L149.255 22.8V13.88H145.695C145.055 13.88 144.589 13.7333 144.295 13.44C144.002 13.1467 143.855 12.68 143.855 12.04V7.2C143.855 6.85333 143.895 6.56 143.975 6.32C144.082 6.08 144.229 5.88 144.415 5.72L149.575 1.36C149.709 1.25333 149.882 1.17333 150.095 1.12C150.335 1.04 150.589 1 150.855 1H167.895C168.535 1 169.002 1.14667 169.295 1.44C169.589 1.73333 169.735 2.2 169.735 2.84V7.68C169.735 8.02667 169.682 8.32 169.575 8.56C169.495 8.8 169.362 9 169.175 9.16L164.415 13.16V22.16H167.895C168.535 22.16 169.002 22.3067 169.295 22.6C169.589 22.8933 169.735 23.36 169.735 24V28.76C169.735 29.1067 169.682 29.4 169.575 29.64C169.495 29.88 169.362 30.08 169.175 30.24L163.975 34.56C163.869 34.6667 163.695 34.76 163.455 34.84C163.242 34.92 163.002 34.96 162.735 34.96ZM150.855 30.2H167.895C168.402 30.2 168.762 30.0933 168.975 29.88C169.215 29.64 169.335 29.2667 169.335 28.76V24C169.335 23.4933 169.215 23.1333 168.975 22.92C168.762 22.68 168.402 22.56 167.895 22.56H164.015V9.12H167.895C168.402 9.12 168.762 9.01333 168.975 8.8C169.215 8.56 169.335 8.18667 169.335 7.68V2.84C169.335 2.33333 169.215 1.97333 168.975 1.76C168.762 1.52 168.402 1.4 167.895 1.4H150.855C150.349 1.4 149.975 1.52 149.735 1.76C149.522 1.97333 149.415 2.33333 149.415 2.84V7.68C149.415 8.18667 149.522 8.56 149.735 8.8C149.975 9.01333 150.349 9.12 150.855 9.12H154.815V22.56H150.855C150.349 22.56 149.975 22.68 149.735 22.92C149.522 23.1333 149.415 23.4933 149.415 24V28.76C149.415 29.2667 149.522 29.64 149.735 29.88C149.975 30.0933 150.349 30.2 150.855 30.2ZM165.735 26.6H153.015V26.2H159.215V5.4H153.015V5H165.735V5.4H159.615V26.2H165.735V26.6Z" stroke="black" stroke-width="2"/>
<path d="M183.538 5.32L198.258 21.88V5H198.658V26.6H198.258V22.48L183.138 5.52C183.112 5.49333 183.072 5.46667 183.018 5.44C182.992 5.41333 182.965 5.4 182.938 5.4C182.912 5.4 182.885 5.41333 182.858 5.44C182.858 5.46667 182.858 5.49333 182.858 5.52V26.6H182.458V5.44C182.458 5.28 182.512 5.16 182.618 5.08C182.725 5 182.832 4.96 182.938 4.96C183.045 4.96 183.138 4.98667 183.218 5.04C183.298 5.09333 183.405 5.18667 183.538 5.32ZM185.698 30.2C186.205 30.2 186.565 30.0933 186.778 29.88C187.018 29.64 187.138 29.2667 187.138 28.76V15.56L193.978 23.84V28.76C193.978 29.2667 194.085 29.64 194.298 29.88C194.538 30.0933 194.912 30.2 195.418 30.2H201.418C201.925 30.2 202.285 30.0933 202.498 29.88C202.738 29.64 202.858 29.2667 202.858 28.76V2.84C202.858 2.33333 202.738 1.97333 202.498 1.76C202.285 1.52 201.925 1.4 201.418 1.4H195.418C194.912 1.4 194.538 1.52 194.298 1.76C194.085 1.97333 193.978 2.33333 193.978 2.84V11.36L186.218 2.48C185.872 2.08 185.512 1.8 185.138 1.64C184.792 1.48 184.365 1.4 183.858 1.4H179.698C179.192 1.4 178.818 1.52 178.578 1.76C178.365 1.97333 178.258 2.33333 178.258 2.84V28.76C178.258 29.2667 178.365 29.64 178.578 29.88C178.818 30.0933 179.192 30.2 179.698 30.2H185.698ZM186.978 30.24L181.778 34.56C181.672 34.6667 181.498 34.76 181.258 34.84C181.045 34.92 180.805 34.96 180.538 34.96H174.538C173.898 34.96 173.432 34.8133 173.138 34.52C172.845 34.2267 172.698 33.76 172.698 33.12V7.2C172.698 6.85333 172.738 6.56 172.818 6.32C172.925 6.08 173.072 5.88 173.258 5.72L178.418 1.36C178.552 1.25333 178.725 1.17333 178.938 1.12C179.178 1.04 179.432 1 179.698 1H183.858C184.445 1 184.938 1.09333 185.338 1.28C185.738 1.46667 186.138 1.77333 186.538 2.2L189.298 5.4L194.138 1.36C194.272 1.25333 194.445 1.17333 194.658 1.12C194.898 1.04 195.152 1 195.418 1H201.418C202.058 1 202.525 1.14667 202.818 1.44C203.112 1.73333 203.258 2.2 203.258 2.84V28.76C203.258 29.1067 203.205 29.4 203.098 29.64C203.018 29.88 202.885 30.08 202.698 30.24L197.498 34.56C197.392 34.6667 197.218 34.76 196.978 34.84C196.765 34.92 196.525 34.96 196.258 34.96H190.258C189.618 34.96 189.152 34.8133 188.858 34.52C188.565 34.2267 188.418 33.76 188.418 33.12V28.36L187.538 27.28V28.76C187.538 29.1067 187.485 29.4 187.378 29.64C187.298 29.88 187.165 30.08 186.978 30.24Z" stroke="#32B2B2" stroke-opacity="0.5" stroke-width="2"/>
<path d="M183.538 5.32L198.258 21.88V5H198.658V26.6H198.258V22.48L183.138 5.52C183.112 5.49333 183.072 5.46667 183.018 5.44C182.992 5.41333 182.965 5.4 182.938 5.4C182.912 5.4 182.885 5.41333 182.858 5.44C182.858 5.46667 182.858 5.49333 182.858 5.52V26.6H182.458V5.44C182.458 5.28 182.512 5.16 182.618 5.08C182.725 5 182.832 4.96 182.938 4.96C183.045 4.96 183.138 4.98667 183.218 5.04C183.298 5.09333 183.405 5.18667 183.538 5.32ZM185.698 30.2C186.205 30.2 186.565 30.0933 186.778 29.88C187.018 29.64 187.138 29.2667 187.138 28.76V15.56L193.978 23.84V28.76C193.978 29.2667 194.085 29.64 194.298 29.88C194.538 30.0933 194.912 30.2 195.418 30.2H201.418C201.925 30.2 202.285 30.0933 202.498 29.88C202.738 29.64 202.858 29.2667 202.858 28.76V2.84C202.858 2.33333 202.738 1.97333 202.498 1.76C202.285 1.52 201.925 1.4 201.418 1.4H195.418C194.912 1.4 194.538 1.52 194.298 1.76C194.085 1.97333 193.978 2.33333 193.978 2.84V11.36L186.218 2.48C185.872 2.08 185.512 1.8 185.138 1.64C184.792 1.48 184.365 1.4 183.858 1.4H179.698C179.192 1.4 178.818 1.52 178.578 1.76C178.365 1.97333 178.258 2.33333 178.258 2.84V28.76C178.258 29.2667 178.365 29.64 178.578 29.88C178.818 30.0933 179.192 30.2 179.698 30.2H185.698ZM186.978 30.24L181.778 34.56C181.672 34.6667 181.498 34.76 181.258 34.84C181.045 34.92 180.805 34.96 180.538 34.96H174.538C173.898 34.96 173.432 34.8133 173.138 34.52C172.845 34.2267 172.698 33.76 172.698 33.12V7.2C172.698 6.85333 172.738 6.56 172.818 6.32C172.925 6.08 173.072 5.88 173.258 5.72L178.418 1.36C178.552 1.25333 178.725 1.17333 178.938 1.12C179.178 1.04 179.432 1 179.698 1H183.858C184.445 1 184.938 1.09333 185.338 1.28C185.738 1.46667 186.138 1.77333 186.538 2.2L189.298 5.4L194.138 1.36C194.272 1.25333 194.445 1.17333 194.658 1.12C194.898 1.04 195.152 1 195.418 1H201.418C202.058 1 202.525 1.14667 202.818 1.44C203.112 1.73333 203.258 2.2 203.258 2.84V28.76C203.258 29.1067 203.205 29.4 203.098 29.64C203.018 29.88 202.885 30.08 202.698 30.24L197.498 34.56C197.392 34.6667 197.218 34.76 196.978 34.84C196.765 34.92 196.525 34.96 196.258 34.96H190.258C189.618 34.96 189.152 34.8133 188.858 34.52C188.565 34.2267 188.418 33.76 188.418 33.12V28.36L187.538 27.28V28.76C187.538 29.1067 187.485 29.4 187.378 29.64C187.298 29.88 187.165 30.08 186.978 30.24Z" stroke="black" stroke-width="2"/>
<path d="M229.2 34.96H216.6C213.107 34.96 210.52 34.0533 208.84 32.24C207.187 30.4267 206.36 28.08 206.36 25.2V13.92C206.36 12.4533 206.573 11.1867 207 10.12C207.427 9.05333 208.053 8.16 208.88 7.44L214.04 3.08C214.867 2.38667 215.92 1.86667 217.2 1.52C218.507 1.17333 220.027 1 221.76 1H231.76C232.4 1 232.867 1.14667 233.16 1.44C233.453 1.73333 233.6 2.2 233.6 2.84V7.68C233.6 8.02667 233.547 8.32 233.44 8.56C233.36 8.8 233.227 9 233.04 9.16L227.84 13.48C227.733 13.5867 227.56 13.68 227.32 13.76C227.107 13.84 226.867 13.88 226.6 13.88H221.4V19.64C221.427 19.5867 221.467 19.5333 221.52 19.48C221.6 19.4 221.667 19.3333 221.72 19.28L226.88 14.92C227.013 14.8133 227.187 14.7333 227.4 14.68C227.64 14.6 227.893 14.56 228.16 14.56H234.36C235 14.56 235.467 14.7067 235.76 15C236.053 15.2933 236.2 15.76 236.2 16.4V28.76C236.2 29.1067 236.147 29.4 236.04 29.64C235.96 29.88 235.827 30.08 235.64 30.24L230.44 34.56C230.333 34.6667 230.16 34.76 229.92 34.84C229.707 34.92 229.467 34.96 229.2 34.96ZM234.36 30.2C234.867 30.2 235.227 30.0933 235.44 29.88C235.68 29.64 235.8 29.2667 235.8 28.76V16.4C235.8 15.8933 235.68 15.5333 235.44 15.32C235.227 15.08 234.867 14.96 234.36 14.96H228.16C227.653 14.96 227.28 15.08 227.04 15.32C226.827 15.5333 226.72 15.8933 226.72 16.4V22.64H222.84C222.227 22.64 221.76 22.48 221.44 22.16C221.147 21.84 221 21.3467 221 20.68V11.12C221 10.4533 221.2 9.96 221.6 9.64C222 9.29333 222.613 9.12 223.44 9.12H231.76C232.267 9.12 232.627 9.01333 232.84 8.8C233.08 8.56 233.2 8.18667 233.2 7.68V2.84C233.2 2.33333 233.08 1.97333 232.84 1.76C232.627 1.52 232.267 1.4 231.76 1.4H221.76C218.427 1.4 215.947 2.06667 214.32 3.4C212.72 4.73333 211.92 6.78667 211.92 9.56V22.04C211.92 24.8133 212.72 26.8667 214.32 28.2C215.947 29.5333 218.427 30.2 221.76 30.2H234.36ZM223.48 26.6C222.013 26.6 220.813 26.5067 219.88 26.32C218.947 26.1333 218.213 25.84 217.68 25.44C217.147 25.0133 216.773 24.48 216.56 23.84C216.373 23.1733 216.28 22.3733 216.28 21.44V10.24C216.28 8.34667 216.707 7 217.56 6.2C218.413 5.4 220.12 5 222.68 5H229.6V5.4H222.68C220.333 5.4 218.747 5.77333 217.92 6.52C217.093 7.24 216.68 8.48 216.68 10.24V21.44C216.68 23.1733 217.133 24.4 218.04 25.12C218.973 25.84 220.787 26.2 223.48 26.2H231.04V18.56H231.44V26.6H223.48Z" stroke="#32B2B2" stroke-opacity="0.5" stroke-width="2"/>
<path d="M229.2 34.96H216.6C213.107 34.96 210.52 34.0533 208.84 32.24C207.187 30.4267 206.36 28.08 206.36 25.2V13.92C206.36 12.4533 206.573 11.1867 207 10.12C207.427 9.05333 208.053 8.16 208.88 7.44L214.04 3.08C214.867 2.38667 215.92 1.86667 217.2 1.52C218.507 1.17333 220.027 1 221.76 1H231.76C232.4 1 232.867 1.14667 233.16 1.44C233.453 1.73333 233.6 2.2 233.6 2.84V7.68C233.6 8.02667 233.547 8.32 233.44 8.56C233.36 8.8 233.227 9 233.04 9.16L227.84 13.48C227.733 13.5867 227.56 13.68 227.32 13.76C227.107 13.84 226.867 13.88 226.6 13.88H221.4V19.64C221.427 19.5867 221.467 19.5333 221.52 19.48C221.6 19.4 221.667 19.3333 221.72 19.28L226.88 14.92C227.013 14.8133 227.187 14.7333 227.4 14.68C227.64 14.6 227.893 14.56 228.16 14.56H234.36C235 14.56 235.467 14.7067 235.76 15C236.053 15.2933 236.2 15.76 236.2 16.4V28.76C236.2 29.1067 236.147 29.4 236.04 29.64C235.96 29.88 235.827 30.08 235.64 30.24L230.44 34.56C230.333 34.6667 230.16 34.76 229.92 34.84C229.707 34.92 229.467 34.96 229.2 34.96ZM234.36 30.2C234.867 30.2 235.227 30.0933 235.44 29.88C235.68 29.64 235.8 29.2667 235.8 28.76V16.4C235.8 15.8933 235.68 15.5333 235.44 15.32C235.227 15.08 234.867 14.96 234.36 14.96H228.16C227.653 14.96 227.28 15.08 227.04 15.32C226.827 15.5333 226.72 15.8933 226.72 16.4V22.64H222.84C222.227 22.64 221.76 22.48 221.44 22.16C221.147 21.84 221 21.3467 221 20.68V11.12C221 10.4533 221.2 9.96 221.6 9.64C222 9.29333 222.613 9.12 223.44 9.12H231.76C232.267 9.12 232.627 9.01333 232.84 8.8C233.08 8.56 233.2 8.18667 233.2 7.68V2.84C233.2 2.33333 233.08 1.97333 232.84 1.76C232.627 1.52 232.267 1.4 231.76 1.4H221.76C218.427 1.4 215.947 2.06667 214.32 3.4C212.72 4.73333 211.92 6.78667 211.92 9.56V22.04C211.92 24.8133 212.72 26.8667 214.32 28.2C215.947 29.5333 218.427 30.2 221.76 30.2H234.36ZM223.48 26.6C222.013 26.6 220.813 26.5067 219.88 26.32C218.947 26.1333 218.213 25.84 217.68 25.44C217.147 25.0133 216.773 24.48 216.56 23.84C216.373 23.1733 216.28 22.3733 216.28 21.44V10.24C216.28 8.34667 216.707 7 217.56 6.2C218.413 5.4 220.12 5 222.68 5H229.6V5.4H222.68C220.333 5.4 218.747 5.77333 217.92 6.52C217.093 7.24 216.68 8.48 216.68 10.24V21.44C216.68 23.1733 217.133 24.4 218.04 25.12C218.973 25.84 220.787 26.2 223.48 26.2H231.04V18.56H231.44V26.6H223.48Z" stroke="black" stroke-width="2"/>
</svg>
