<svg width="48" height="46" viewBox="0 0 48 46" fill="none" xmlns="http://www.w3.org/2000/svg">
<path d="M7.29286 14.2253C7.29302 12.7889 7.68927 11.4628 8.39486 10.3167L9.11656 9.14433L10.0083 10.1932C13.0497 13.7704 17.5147 16.208 22.5742 16.7624C22.3103 12.1336 26.161 8.61364 30.5893 8.61364C32.6824 8.61364 34.5952 9.3764 36.0329 10.6484C37.3288 10.362 38.5702 9.87847 39.6846 9.24531L41.9653 7.94942L41.126 10.4347C40.9414 10.9812 40.6955 11.5003 40.3958 11.9845C40.5186 11.9376 40.6405 11.8891 40.7615 11.8392L43.9705 10.5153L41.9576 13.3435C41.0425 14.6292 39.9169 15.7812 38.6377 16.7384C38.6393 16.8631 38.6393 16.983 38.6393 17.0945V17.1102C38.6393 26.4533 31.1934 37.1943 17.6464 37.1943C13.4739 37.1943 9.59709 36.0375 6.335 34.0404L6.96458 32.1933C7.48672 32.2497 7.99556 32.2693 8.55 32.2693C10.7125 32.2693 12.7467 31.7773 14.5433 30.902C12.2841 30.0776 10.5039 28.3081 9.7552 26.0694L9.24206 24.5351L9.70081 24.6001C8.19406 23.2044 7.25 21.2426 7.25 19.0432V18.9614V17.2884L8.20447 17.8015C7.6048 16.7 7.29086 15.473 7.29286 14.2253ZM7.29286 14.2253C7.29286 14.225 7.29286 14.2247 7.29286 14.2244L8.29286 14.2261H7.29286C7.29286 14.2259 7.29286 14.2256 7.29286 14.2253ZM8.75867 11.8044C8.89413 11.4695 9.05746 11.1479 9.24643 10.8409M8.75867 11.8044L9.94882 11.6227C9.70744 11.3683 9.47321 11.1076 9.24643 10.8409M8.75867 11.8044C8.6662 11.7001 8.57483 11.5948 8.48457 11.4886L9.24643 10.8409M8.75867 11.8044L9.24643 10.8409M5.14286 1H42.8571C45.1885 1 47 2.79448 47 4.90909V40.9091C47 43.0237 45.1885 44.8182 42.8571 44.8182H5.14286C2.81151 44.8182 1 43.0237 1 40.9091V4.90909C1 2.79448 2.81151 1 5.14286 1Z" fill="#268E8E" fill-opacity="0.94" stroke="#185C5C" stroke-width="2"/>
</svg>
